<?xml version="1.0" encoding="UTF-8" standalone="no"?>
<svg xmlns="http://www.w3.org/2000/svg" viewBox="0 0 1024 1024" width="1024" height="1024">
  <rect width="1024" height="1024" fill="white"/>
  <path d="M 815 302 L 811 278 L 803 251 L 795 236 L 787 228 L 778 227 L 770 233 L 757 262 L 749 274 L 737 287 L 723 298 L 712 304 L 691 312 L 675 316 L 627 322 L 550 326 L 548 315 L 540 309 L 540 292 L 548 290 L 552 286 L 553 282 L 551 276 L 543 273 L 515 273 L 511 276 L 509 283 L 514 290 L 519 290 L 522 292 L 522 309 L 514 315 L 512 327 L 492 327 L 491 318 L 489 314 L 482 309 L 481 292 L 483 290 L 489 290 L 493 287 L 493 277 L 488 273 L 457 273 L 452 278 L 452 285 L 455 289 L 461 290 L 464 293 L 464 309 L 455 315 L 455 326 L 453 328 L 433 328 L 432 318 L 430 314 L 423 310 L 423 292 L 429 291 L 435 287 L 435 277 L 429 273 L 398 273 L 394 276 L 392 283 L 397 290 L 402 290 L 405 292 L 405 309 L 397 315 L 395 328 L 324 329 L 311 331 L 303 334 L 261 335 L 257 331 L 250 329 L 221 327 L 216 325 L 210 319 L 199 316 L 196 318 L 194 324 L 194 369 L 196 378 L 198 380 L 205 380 L 209 378 L 215 371 L 221 368 L 245 367 L 256 364 L 262 359 L 273 360 L 264 372 L 255 393 L 252 410 L 254 434 L 259 449 L 269 466 L 282 479 L 301 490 L 319 495 L 396 495 L 398 513 L 406 519 L 423 519 L 427 517 L 432 511 L 433 495 L 454 495 L 456 512 L 458 515 L 466 519 L 480 519 L 485 517 L 491 509 L 492 495 L 511 495 L 512 508 L 516 516 L 522 519 L 539 519 L 544 517 L 548 512 L 550 495 L 622 494 L 643 486 L 652 480 L 665 467 L 675 449 L 678 440 L 680 429 L 680 413 L 675 392 L 670 382 L 662 372 L 663 371 L 669 371 L 696 377 L 712 383 L 723 389 L 740 402 L 751 414 L 759 426 L 769 449 L 778 457 L 786 457 L 795 449 L 802 437 L 809 418 L 813 400 L 817 365 L 817 323 Z" fill="black" stroke="none"/>
  <path d="M 145 573 L 145 753 L 147 755 L 177 754 L 177 674 L 179 654 L 181 656 L 184 666 L 221 754 L 254 754 L 255 574 L 253 572 L 223 573 L 223 673 L 221 674 L 181 575 L 177 572 Z" fill="black" stroke="none"/>
  <path d="M 779 572 L 777 574 L 777 753 L 779 755 L 807 755 L 810 753 L 811 654 L 813 656 L 852 754 L 885 754 L 885 573 L 855 572 L 853 574 L 852 674 L 812 575 L 809 572 Z" fill="black" stroke="none"/>
  <path d="M 513 572 L 511 574 L 511 753 L 513 755 L 542 755 L 544 753 L 544 679 L 546 677 L 583 677 L 584 754 L 616 755 L 618 751 L 618 574 L 615 572 L 586 572 L 584 574 L 583 580 L 584 642 L 581 645 L 547 645 L 544 642 L 544 573 Z" fill="black" stroke="none"/>
  <path d="M 679 572 L 677 573 L 637 753 L 639 755 L 669 755 L 672 751 L 677 721 L 679 719 L 716 719 L 718 721 L 725 754 L 756 755 L 759 752 L 720 576 L 717 572 Z" fill="black" stroke="none"/>
  <path d="M 317 572 L 313 580 L 299 649 L 276 749 L 276 754 L 308 755 L 310 753 L 315 724 L 318 719 L 354 719 L 357 723 L 363 754 L 394 755 L 396 753 L 395 743 L 357 574 L 355 572 Z" fill="black" stroke="none"/>
  <path d="M 394 572 L 391 575 L 392 602 L 421 603 L 424 605 L 424 752 L 426 755 L 456 755 L 458 751 L 458 605 L 460 603 L 488 603 L 491 600 L 491 575 L 488 572 Z" fill="black" stroke="none"/>
  <path d="M 396 361 L 397 409 L 362 411 L 344 420 L 334 432 L 329 445 L 328 456 L 330 464 L 333 469 L 332 471 L 312 467 L 302 462 L 289 450 L 280 432 L 278 423 L 278 410 L 280 400 L 286 386 L 298 372 L 309 365 L 324 361 Z" fill="black" stroke="none"/>
  <path d="M 550 363 L 576 363 L 612 366 L 628 372 L 641 383 L 646 390 L 653 405 L 655 425 L 653 436 L 647 449 L 636 461 L 627 467 L 621 469 L 620 468 L 623 455 L 623 447 L 620 435 L 613 424 L 602 415 L 593 411 L 583 409 L 549 408 Z" fill="black" stroke="none"/>
  <path d="M 549 435 L 565 433 L 586 434 L 596 442 L 598 446 L 598 457 L 590 467 L 583 470 L 550 470 Z" fill="black" stroke="none"/>
  <path d="M 354 445 L 360 438 L 369 434 L 396 435 L 397 469 L 367 470 L 360 467 L 353 458 Z" fill="black" stroke="none"/>
  <path d="M 433 361 L 454 362 L 453 409 L 432 409 Z" fill="black" stroke="none"/>
  <path d="M 492 361 L 512 362 L 511 409 L 491 408 Z" fill="black" stroke="none"/>
  <path d="M 698 623 L 711 683 L 710 689 L 685 688 L 685 681 L 696 627 Z" fill="black" stroke="none"/>
  <path d="M 336 623 L 338 627 L 350 687 L 348 689 L 325 689 L 323 687 Z" fill="black" stroke="none"/>
  <path d="M 433 435 L 455 436 L 454 470 L 432 469 Z" fill="black" stroke="none"/>
  <path d="M 492 434 L 512 435 L 511 470 L 491 469 Z" fill="black" stroke="none"/>
</svg>